<?xml version="1.0" encoding="UTF-8" standalone="no"?>
<svg
   xmlns:dc="http://purl.org/dc/elements/1.1/"
   xmlns:cc="http://creativecommons.org/ns#"
   xmlns:rdf="http://www.w3.org/1999/02/22-rdf-syntax-ns#"
   xmlns:svg="http://www.w3.org/2000/svg"
   xmlns="http://www.w3.org/2000/svg"
   xmlns:sodipodi="http://sodipodi.sourceforge.net/DTD/sodipodi-0.dtd"
   xmlns:inkscape="http://www.inkscape.org/namespaces/inkscape"
   data-name="Layer 1"
   viewBox="0 0 92 128"
   x="0px"
   y="0px"
   version="1.1"
   id="svg10"
   sodipodi:docname="noun_hop flower_2721860.svg"
   width="92"
   height="128"
   inkscape:version="0.92.4 (5da689c313, 2019-01-14)">
  <metadata
     id="metadata16">
    <rdf:RDF>
      <cc:Work
         rdf:about="">
        <dc:format>image/svg+xml</dc:format>
        <dc:type
           rdf:resource="http://purl.org/dc/dcmitype/StillImage" />
        <dc:title>Hop-Flower</dc:title>
      </cc:Work>
    </rdf:RDF>
  </metadata>
  <defs
     id="defs14" />
  <sodipodi:namedview
     pagecolor="#ffffff"
     bordercolor="#666666"
     borderopacity="1"
     objecttolerance="10"
     gridtolerance="10"
     guidetolerance="10"
     inkscape:pageopacity="0"
     inkscape:pageshadow="2"
     inkscape:window-width="1920"
     inkscape:window-height="1057"
     id="namedview12"
     showgrid="false"
     inkscape:zoom="2"
     inkscape:cx="115.84766"
     inkscape:cy="114.07739"
     inkscape:window-x="-8"
     inkscape:window-y="-8"
     inkscape:window-maximized="1"
     inkscape:current-layer="svg10" />
  <title
     id="title2">Hop-Flower</title>
  <g
     id="g4683"
     transform="matrix(0.76129074,0,0,0.76129074,7.6309467,17.620442)"
     inkscape:export-xdpi="192"
     inkscape:export-ydpi="192">
    <path
       style="stroke-width:1.89873421"
       inkscape:connector-curvature="0"
       id="path4"
       d="m 100.65949,32.167197 a 2.335443,2.335443 0 0 0 2.46836,-0.28481 2.4873418,2.4873418 0 0 0 0.81645,-2.92405 C 103.56456,28.046944 94.69747,6.629223 75.69114,2.129223 a 80.810127,80.810127 0 0 0 -19.746836,-2.71519 c -3.474684,-8.848102 0.56962,-18.987342 0.626582,-19.120253 a 2.5253165,2.5253165 0 0 0 -0.189873,-2.240507 2.4493671,2.4493671 0 0 0 -1.898735,-1.177215 58.120253,58.120253 0 0 0 -10.727848,0.702532 2.4493671,2.4493671 0 0 0 -1.898734,1.481012 2.5632911,2.5632911 0 0 0 0.246836,2.392405 c 1.42405,2.031646 1.120253,10.822785 0,18.037975 A 87.113924,87.113924 0 0 0 25.127848,2.129223 c -19.025316,4.5 -27.892405,25.917721 -28.272152,26.829114 a 2.4873418,2.4873418 0 0 0 0.816456,2.92405 2.335443,2.335443 0 0 0 2.468354,0.28481 C -4.473418,39.420362 -9.524051,49.78745 -9.6,58.939349 a 2.4873418,2.4873418 0 0 0 1.025316,2.012658 2.4493671,2.4493671 0 0 0 1.462026,0.474684 2.1455696,2.1455696 0 0 0 0.607595,0 c -3.341772,23.696202 5.35443,31.310127 5.696202,31.632911 a 2.4113924,2.4113924 0 0 0 1.594937,0.588608 2.4683544,2.4683544 0 0 0 1.291139,-0.36076 l 0.588608,-0.379746 c 3.550633,15.588606 11.316455,23.620256 11.658228,23.905066 a 2.4683544,2.4683544 0 0 0 1.765822,0.72152 h 0.284811 a 2.4493671,2.4493671 0 0 0 1.898734,-1.13924 c 0.09494,-0.1519 0.892405,-1.44304 2.012658,-3.32279 2.620253,6.20886 7.898734,16.5 15.911392,22.00633 a 2.6202532,2.6202532 0 0 0 1.424051,0.43671 2.4873418,2.4873418 0 0 0 1.632911,-0.62658 l 1.044304,-0.98735 8.810127,10.23418 a 2.5063291,2.5063291 0 0 0 1.898734,0.85443 v 0 a 2.4873418,2.4873418 0 0 0 1.898734,-0.87342 l 8.183544,-9.68354 c 0.474684,0.37975 0.778481,0.58861 0.854431,0.64557 a 2.4873418,2.4873418 0 0 0 1.386076,0.43671 2.5253165,2.5253165 0 0 0 1.613924,-0.58861 63.683544,63.683544 0 0 0 15.797466,-21.47468 c 1.10127,1.72785 1.89874,2.86709 1.89874,3.01899 a 2.5253165,2.5253165 0 0 0 1.89873,1.08227 h 0.22785 a 2.4683544,2.4683544 0 0 0 1.76582,-0.72152 c 0.34177,-0.36075 8.1076,-8.31645 11.60127,-23.999996 l 0.5886,0.379747 a 2.4683544,2.4683544 0 0 0 1.29114,0.36076 2.4113924,2.4113924 0 0 0 1.59494,-0.588608 c 0.39873,-0.322785 9.09494,-7.917722 5.6962,-31.613924 a 2.1265823,2.1265823 0 0 0 0.6076,0 2.4303797,2.4303797 0 0 0 1.5,-0.512658 2.4683544,2.4683544 0 0 0 0.98734,-1.898734 c -0.076,-9.170887 -5.12658,-19.537975 -9.74051,-26.79114 z m -5.18354,-8.430379 -2.08861,-0.854431 v 0 A 259.08228,259.08228 0 0 0 67.127848,14.888716 21.417722,21.417722 0 0 1 55.051899,6.401374 6.3227848,6.3227848 0 0 0 56.134177,4.50264 76.879747,76.879747 0 0 1 74.53291,7.084919 c 10.04431,2.259493 17.01266,10.5 20.94304,16.651899 z M 50.134177,8.698843 h 0.493671 a 27.208861,27.208861 0 0 0 9.265823,8.601266 C 62.286076,30.344412 54.9,37.806438 48.501266,41.736817 a 1.8987342,1.8987342 0 0 0 -0.322785,0.189874 36.64557,36.64557 0 0 1 -7.082278,3.208861 C 37.963291,42.154539 28.374684,31.844412 32.68481,20.452007 c 0,0 0,-0.113924 0,-0.170886 l 2.316456,-0.588607 A 26.35443,26.35443 0 0 0 50.134177,8.698843 Z M 38.893671,49.825425 a 2.4303797,2.4303797 0 0 0 1.575949,0.56962 2.1265823,2.1265823 0 0 0 0.607595,0 36.64557,36.64557 0 0 0 5.943038,-2.278481 41.088608,41.088608 0 0 0 2.012658,12.265823 C 44.703797,72.021628 37.887342,76.920362 34.944304,78.553273 31.621519,74.755805 22.336709,63.00264 23.11519,46.977324 a 35.943038,35.943038 0 0 0 7.462025,-7.025317 40.822785,40.822785 0 0 0 8.316456,9.873418 z m -6.208861,33.56962 a 2.5253165,2.5253165 0 0 0 1.708861,0.683545 2.8101266,2.8101266 0 0 0 0.873418,-0.151899 c 0.436708,-0.170886 9.797468,-3.797468 16.348101,-17.088608 a 63.778481,63.778481 0 0 0 3.493671,6.36076 c -4.5,19.765823 -14.696203,29.373417 -18.379747,32.278477 A 44.981013,44.981013 0 0 1 21.064557,72.097577 c 0.531646,-1.13924 1.006329,-2.335443 1.443038,-3.550633 A 52.443038,52.443038 0 0 0 32.68481,83.395045 Z M 58.849367,78.64821 a 53.582278,53.582278 0 0 0 3.968355,4.670886 2.4683544,2.4683544 0 0 0 1.765822,0.759494 2.5253165,2.5253165 0 0 0 1.594937,-0.569621 50.563291,50.563291 0 0 0 11.886079,-15.607595 40.594937,40.594937 0 0 0 3.07595,6.854431 C 78.02658,92.167197 67.944304,100.93935 64.583544,103.42669 62.931646,102.30644 59.229114,99.135552 54.140506,90.952007 A 71.411392,71.411392 0 0 0 58.849367,78.64821 Z M 64.75443,78.021628 C 60.767089,73.274792 50.874684,59.888716 52.127848,45.192514 A 29.563291,29.563291 0 0 0 63.311392,32.603906 52.613924,52.613924 0 0 0 77.43797,47.091248 c 0.93038,15.455696 -8.658223,26.848101 -12.68354,30.93038 z M 46.811392,1.255805 a 1.9936709,1.9936709 0 0 0 0.113924,-0.455696 c 0.379747,-2.354431 1.898735,-12.455697 0.569621,-18.683545 1.044304,-0.113924 2.221519,-0.227848 3.341772,-0.28481 -1.196203,4.481013 -2.525317,12.64557 0.778481,20.221519 A 2.0506329,2.0506329 0 0 1 51.102532,3.28745 3.3227848,3.3227848 0 0 1 48.729114,3.781121 C 47.741772,3.686181 47.058228,3.439349 46.83038,3.07859 A 2.5253165,2.5253165 0 0 1 46.81139,1.255805 Z M 26.267089,6.952007 A 80.316456,80.316456 0 0 1 42.026582,4.50264 6.3417722,6.3417722 0 0 0 42.61519,5.774792 6.2468354,6.2468354 0 0 0 44.68481,7.673526 21.170886,21.170886 0 0 1 33.729114,14.850742 259.08228,259.08228 0 0 0 7.46962,22.844412 v 0 L 5.362025,23.698843 C 9.235443,17.603906 16.222785,9.344412 26.267089,6.970995 Z M -4.321519,55.331754 C -2.422785,42.857071 7.849367,29.698843 9.805063,27.28745 14.931646,25.388716 21.197468,23.489982 27.083544,21.819096 a 22.78481,22.78481 0 0 0 0.968355,12.797468 C 24.007595,43.312767 6.083544,51.496311 -4.074684,55.255805 Z M 1.374684,87.724159 C -0.524051,84.667197 -4.036709,76.464666 -1.112658,59.452007 a 125.18354,125.18354 0 0 0 19.234177,-9.151898 46.13924,46.13924 0 0 0 1.367089,9.607595 C 17.722785,74.452007 5.893671,84.382387 1.336709,87.724159 Z M 15.786076,110.83175 A 52.708861,52.708861 0 0 1 7.146835,89.622893 56.164557,56.164557 0 0 0 16.640506,79.559602 48.607595,48.607595 0 0 0 22.773418,96.64821 89.449367,89.449367 0 0 1 15.786076,110.83175 Z m 21.531646,18.98735 c -7.936709,-6.64557 -12.721519,-18.98735 -13.955697,-22.40507 1.006329,-1.89873 1.993671,-3.91139 2.829114,-5.81012 a 44.221519,44.221519 0 0 0 9.018988,9.05696 2.4303797,2.4303797 0 0 0 1.42405,0.43671 2.3544304,2.3544304 0 0 0 1.272152,-0.36076 30.778481,30.778481 0 0 0 5.164557,-4.21519 81.85443,81.85443 0 0 0 3.797468,9.18987 60.759494,60.759494 0 0 1 -9.550632,14.1076 z m 13.594936,8.94303 -7.348101,-8.62025 a 65.411392,65.411392 0 0 0 6.227848,-9.18987 57.778481,57.778481 0 0 0 7.594937,10.06329 z m 12.28481,-8.94303 C 59.950633,126.93302 52.051899,118.59758 46.944304,102.38239 a 54.873418,54.873418 0 0 0 4.462025,-6.360762 c 7.063291,10.651902 11.696203,12.531642 12.626582,12.816452 a 2.9810127,2.9810127 0 0 0 0.702532,0 2.5632911,2.5632911 0 0 0 1.272152,-0.34177 36.93038,36.93038 0 0 0 7.955695,-6.98734 c 1.02532,2.20253 2.27848,4.53797 3.53165,6.68354 A 62.791139,62.791139 0 0 1 63.197468,129.8191 Z M 84.91899,110.83175 a 85.594937,85.594937 0 0 1 -7.42405,-13.841768 52.974684,52.974684 0 0 0 7.44303,-16.462025 57.455696,57.455696 0 0 0 8.71519,8.981012 53.164557,53.164557 0 0 1 -8.73417,21.322781 z M 99.48228,87.705172 C 94.86835,84.344412 82.84937,74.262134 81.27342,59.489982 v -0.227848 a 40.917722,40.917722 0 0 0 1.25316,-8.867089 108.22785,108.22785 0 0 0 19.46203,9.170886 C 104.8557,76.654539 101.4,84.705172 99.48228,87.724159 Z M 104.4,55.198843 C 94.98228,51.970995 72.31139,42.477324 65.229114,25.57859 v 0 a 29.14557,29.14557 0 0 0 0,-6.056962 l 0.512658,0.170886 c 7.898738,2.107595 17.696198,4.727848 25.196198,7.594936 1.89874,2.411393 12.24684,15.607595 14.12659,28.082279 A 2.3544304,2.3544304 0 0 0 104.4,55.198843 Z" />
    <path
       inkscape:connector-curvature="0"
       id="path4580"
       d="M -3.5702249,52.952799 C -2.6235795,47.878561 1.7937992,38.890102 6.9016347,31.644715 l 2.960367,-4.199235 8.0396333,-2.559446 c 4.421798,-1.407696 8.23393,-2.559174 8.471405,-2.558841 0.237474,3.33e-4 0.284216,0.984576 0.103871,2.187206 -0.28881,1.925922 0.06555,5.221687 1.006678,9.362594 0.570018,2.508058 -6.561906,8.938727 -15.292321,13.788686 -2.7061023,1.503306 -15.1888247,7.16212 -15.7988498,7.16212 -0.1718428,0 -0.1550321,-0.84375 0.037357,-1.875 z"
       style="fill:#ed8274;fill-opacity:1;stroke-width:0.5" />
    <path
       inkscape:connector-curvature="0"
       id="path4582"
       d="M 38.340923,41.702799 C 33.23771,35.386822 31.011219,28.747849 32.153732,23.25378 c 0.553033,-2.659401 0.686651,-2.842664 2.292197,-3.143866 3.728629,-0.699495 9.510947,-4.16205 12.835225,-7.68596 l 3.20841,-3.4010833 1.725852,2.1656113 c 0.949218,1.191086 3.012678,3.105459 4.585466,4.254162 2.566089,1.874171 2.894852,2.321892 3.20292,4.361852 0.478204,3.16657 -0.541732,8.515363 -2.280605,11.960052 -2.521612,4.995285 -7.952834,9.667096 -14.017579,12.057595 -1.403254,0.553111 -2.616254,1.005656 -2.695557,1.005656 -0.0793,0 -1.280415,-1.40625 -2.669138,-3.125 z"
       style="fill:#ed8274;fill-opacity:1;stroke-width:0.5" />
    <path
       inkscape:connector-curvature="0"
       id="path4584"
       d="M 99.680009,53.122052 C 88.99698,48.938561 79.987331,43.281363 73.435545,36.643036 67.604339,30.734808 65.580119,27.093618 65.792155,22.894019 l 0.149113,-2.953323 7.540502,2.124169 c 4.147276,1.168293 9.73474,2.85518 12.416586,3.748638 4.798869,1.598745 4.911896,1.673082 7.137604,4.694383 4.74704,6.443894 9.08755,14.752852 10.85822,20.785664 0.89829,3.060552 0.9561,3.542101 0.42209,3.515733 -0.20625,-0.01018 -2.29257,-0.769438 -4.636261,-1.687231 z"
       style="fill:#ed8274;fill-opacity:1;stroke-width:0.5" />
    <path
       inkscape:connector-curvature="0"
       id="path4598"
       d="M 0.57556846,85.602057 C -1.2976906,81.118717 -1.8594933,77.629646 -1.8033509,70.827799 c 0.030643,-3.7125 0.2466208,-7.730214 0.4799506,-8.928253 l 0.42423606,-2.178253 5.99841014,-2.598867 c 3.299126,-1.429376 7.4801691,-3.429091 9.2912071,-4.443809 l 3.292797,-1.844943 0.780757,4.777509 c 0.879173,5.379723 0.507628,8.146586 -1.7923,13.347133 -2.495881,5.64363 -8.1224541,12.749742 -13.4128036,16.939777 l -1.9232063,1.523208 z"
       style="fill:#a6cc70;fill-opacity:1;stroke-width:0.5" />
    <path
       inkscape:connector-curvature="0"
       id="path4600"
       d="m 32.318576,74.734976 c -3.154574,-4.4367 -6.60587,-11.524988 -7.711862,-15.83866 -0.448639,-1.749815 -0.949862,-5.082466 -1.113829,-7.40589 l -0.298121,-4.224408 1.951446,-1.591005 c 1.073296,-0.875052 2.709338,-2.424713 3.63565,-3.443691 l 1.684204,-1.852686 2.11137,2.849581 c 2.424459,3.27214 6.920903,7.605209 7.873802,7.587715 0.355531,-0.0065 1.914597,-0.533516 3.464591,-1.171087 l 2.818171,-1.159218 0.328173,3.330438 c 0.180495,1.831741 0.644017,4.527748 1.030049,5.991126 0.68325,2.59008 0.663033,2.746357 -0.761826,5.888816 -2.494139,5.500705 -6.060875,9.999873 -10.572119,13.335927 l -1.83938,1.360218 z"
       style="fill:#a6cc70;fill-opacity:1;stroke-width:0.5" />
    <path
       inkscape:connector-curvature="0"
       id="path4602"
       d="M 61.835853,73.733045 C 56.272212,65.851698 52.919449,57.374504 52.484834,50.089737 l -0.270701,-4.537316 2.782438,-2.146635 c 2.840109,-2.191128 6.272974,-6.23409 7.389676,-8.702987 0.342059,-0.75625 0.754558,-1.370196 0.916667,-1.364324 0.162108,0.0059 0.920792,0.895727 1.685964,1.977456 2.285378,3.230853 6.32407,7.426714 9.50311,9.872929 l 2.986194,2.297823 -0.319585,3.832104 c -0.453586,5.438881 -1.490255,9.097932 -4.039813,14.259012 -2.159969,4.372434 -6.953222,11.227365 -8.123383,11.617419 -0.31857,0.10619 -1.740367,-1.451788 -3.159548,-3.462173 z"
       style="fill:#a6cc70;fill-opacity:1;stroke-width:0.5" />
    <path
       inkscape:connector-curvature="0"
       id="path4604"
       d="M 95.253962,83.811047 C 88.602165,77.741861 84.207942,70.851446 82.345673,63.570046 c -0.851992,-3.331259 -0.8719,-3.979625 -0.232365,-7.567825 0.384703,-2.158432 0.70731,-4.188641 0.716904,-4.511576 0.0096,-0.322935 2.211194,0.569163 4.892444,1.982438 2.68125,1.413276 6.894201,3.403842 9.362114,4.42348 5.26855,2.176745 5.11239,1.884712 5.57787,10.431236 0.32853,6.032165 -0.20839,11.142166 -1.61471,15.367416 -1.338229,4.020689 -1.510489,4.024133 -5.793968,0.115832 z"
       style="fill:#a6cc70;fill-opacity:1;stroke-width:0.5" />
    <path
       inkscape:connector-curvature="0"
       id="path4608"
       d="M 14.141998,107.69857 C 11.794872,103.6935 9.4330034,98.078684 8.4100277,94.072083 l -1.0226211,-4.00521 4.5062914,-4.676704 c 2.47846,-2.572187 4.567065,-4.594729 4.641345,-4.494537 0.07428,0.100192 0.626441,2.060563 1.227027,4.35638 0.600585,2.295817 1.878036,5.769813 2.83878,7.719991 0.960743,1.950178 1.746806,3.773249 1.746806,4.05127 0,0.907683 -6.047397,12.804527 -6.50879,12.804527 -0.246981,0 -1.010571,-0.95815 -1.696868,-2.12923 z"
       style="fill:#fad07b;fill-opacity:1;stroke-width:0.5" />
    <path
       inkscape:connector-curvature="0"
       id="path4610"
       d="m 33.682867,102.2028 c -2.969404,-3.161185 -5.651444,-7.040289 -7.76222,-11.226708 -3.2676,-6.480809 -5.383743,-16.983857 -4.063885,-20.170275 l 0.636799,-1.53737 1.384031,2.530898 c 3.044268,5.566879 8.70041,12.528454 10.179121,12.528454 3.340931,0 12.423412,-7.939943 15.789981,-13.803668 l 1.749037,-3.046389 1.666786,3.007295 1.666786,3.007295 -1.591374,5.042733 c -1.991011,6.309099 -4.207214,11.157144 -7.251721,15.86347 -2.397863,3.706717 -8.46992,10.429265 -9.420102,10.429265 -0.284619,0 -1.627077,-1.18125 -2.983239,-2.625 z"
       style="fill:#fad07b;fill-opacity:1;stroke-width:0.5" />
    <path
       inkscape:connector-curvature="0"
       id="path4612"
       d="m 61.268747,99.952799 c -1.502121,-1.58125 -3.668765,-4.261387 -4.814766,-5.95586 l -2.083637,-3.080861 1.421338,-3.169139 c 0.781737,-1.743027 1.808238,-4.353473 2.281116,-5.800992 l 0.859777,-2.631852 2.253875,2.506852 c 1.450976,1.613835 2.659025,2.506852 3.391199,2.506852 1.55666,0 7.842699,-6.651999 11.002909,-11.643475 l 2.465043,-3.893476 1.438162,3.143476 1.438163,3.143475 -1.048586,4 c -1.162367,4.434035 -4.120662,10.992224 -6.599226,14.629704 -2.009214,2.948674 -7.884502,9.120297 -8.682379,9.120297 -0.325522,0 -1.820867,-1.29375 -3.322988,-2.875001 z"
       style="fill:#fad07b;fill-opacity:1;stroke-width:0.5" />
    <path
       inkscape:connector-curvature="0"
       id="path4614"
       d="m 83.721497,108.42525 c -0.708151,-1.07008 -2.344299,-4.04973 -3.635885,-6.62143 -2.286423,-4.552544 -2.326237,-4.709443 -1.510043,-5.950923 1.381887,-2.101934 5.140886,-10.123076 5.802139,-12.380895 l 0.616729,-2.105797 4.183167,4.249614 4.183166,4.249614 -0.732015,3.156386 c -0.97928,4.222575 -3.238813,9.805111 -5.647283,13.952511 l -1.972427,3.39654 z"
       style="fill:#fad07b;fill-opacity:1;stroke-width:0.5" />
    <path
       inkscape:connector-curvature="0"
       id="path4618"
       d="m 35.010916,127.197 c -1.080256,-1.17194 -2.931934,-3.55599 -4.114841,-5.2979 -2.437076,-3.58875 -7.030359,-12.86258 -7.041231,-14.21622 -0.0055,-0.68035 1.599854,-4.47572 2.205712,-5.21485 0.04949,-0.0604 2.137137,1.90837 4.639218,4.375 3.132416,3.08802 4.914972,4.4841 5.723561,4.48262 0.645877,-10e-4 2.378882,-0.91537 3.851124,-2.03153 1.472241,-1.11616 2.727278,-1.95894 2.78897,-1.87285 0.06169,0.0861 0.873616,2.02911 1.804277,4.31781 l 1.692109,4.16129 -1.437921,2.58871 c -2.153226,3.87649 -7.245937,10.83872 -7.928278,10.83872 -0.12023,0 -1.102445,-0.95886 -2.1827,-2.1308 z"
       style="fill:#95e6cb;fill-opacity:1;stroke-width:0.5" />
    <path
       inkscape:connector-curvature="0"
       id="path4620"
       d="m 60.466852,126.61303 c -4.73812,-5.18426 -9.179319,-12.80543 -11.845906,-20.32777 l -1.344415,-3.79255 1.910563,-2.813392 c 1.050809,-1.547366 2.04117,-2.821971 2.200802,-2.832456 0.159632,-0.01049 1.054534,1.049687 1.98867,2.355937 4.089624,5.718731 8.604222,9.625001 11.123914,9.625001 1.613882,0 3.81085,-1.42236 7.211694,-4.669 1.162984,-1.11025 2.195606,-1.92017 2.294715,-1.79982 0.09911,0.12035 0.869789,1.51276 1.71262,3.09424 l 1.532422,2.87542 -1.956922,4.04667 c -2.420057,5.00437 -7.16745,11.99173 -10.093831,14.85641 l -2.200313,2.15392 z"
       style="fill:#8bccd6;fill-opacity:1;stroke-width:0.5" />
    <path
       inkscape:connector-curvature="0"
       id="path4622"
       d="m 34.69251,126.56685 c -2.769621,-3.2392 -5.179191,-6.94546 -7.460129,-11.47473 -3.179128,-6.31282 -3.398087,-7.1726 -2.446355,-9.60607 0.446397,-1.14139 0.955304,-2.21885 1.130905,-2.39436 0.175601,-0.17551 2.38112,1.60582 4.901154,3.9585 2.520033,2.35269 4.918783,4.27761 5.330555,4.27761 0.896686,0 3.4269,-1.26892 5.317867,-2.66695 0.752868,-0.55661 1.449193,-0.9155 1.54739,-0.79753 0.0982,0.11796 0.902857,1.97716 1.788135,4.13155 l 1.609597,3.91708 -1.99811,3.36332 c -2.66657,4.4885 -6.51067,9.55647 -7.233245,9.53613 -0.32044,-0.009 -1.439934,-1.01907 -2.487764,-2.24455 z"
       style="fill:#8bccd6;fill-opacity:1;stroke-width:0.5" />
    <path
       inkscape:connector-curvature="0"
       id="path4656"
       d="m 47.436765,134.25704 -3.485123,-4.07256 2.823007,-4.15645 c 1.552654,-2.28605 2.935507,-4.1659 3.073007,-4.17745 0.1375,-0.0115 0.870953,0.96193 1.629895,2.16328 0.758942,1.20135 2.277692,3.20422 3.375,4.45083 1.097308,1.24661 1.995105,2.38038 1.995105,2.5195 0,0.13912 -1.333298,1.84876 -2.962884,3.79919 l -2.962884,3.54623 z"
       style="fill:#cfbafa;fill-opacity:1;stroke-width:0.5" />
    <path
       inkscape:connector-curvature="0"
       id="path4658"
       d="m 6.8193661,21.88066 c 0.2787914,-0.520926 2.2100489,-2.757604 4.2916829,-4.970394 3.761311,-3.998296 8.159913,-7.1867989 11.986607,-8.68897 2.712153,-1.0646569 10.719486,-2.7510014 15,-3.159 l 3.5,-0.3336036 1.177244,1.59997 1.177243,1.59997 -1.844881,1.8893292 c -2.568023,2.6298944 -5.824131,4.0751934 -14.509606,6.4404234 -4.125,1.12332 -10.528131,3.060979 -14.229179,4.305907 -3.701049,1.244929 -6.8027153,2.263507 -6.8925921,2.263507 -0.089877,0 0.06469,-0.426212 0.3434812,-0.947139 z"
       style="fill:#95e6cb;fill-opacity:1;stroke-width:0.5" />
    <path
       inkscape:connector-curvature="0"
       id="path4660"
       d="m 87.097656,20.524043 c -3.575,-1.224937 -9.875,-3.150063 -14,-4.278059 C 64.168659,13.804319 60.929467,12.263694 57.640864,8.8944242 55.552297,6.7546259 55.280448,6.2612437 55.827087,5.6025839 c 0.815211,-0.9822697 3.324207,-0.9865202 9.770569,-0.016552 9.970189,1.5001888 15.166014,3.4768922 20.5,7.7990351 3.471904,2.813291 9.107556,9.51834 7.904509,9.404434 -0.22248,-0.02107 -3.329509,-1.040521 -6.904509,-2.265458 z"
       style="fill:#95e6cb;fill-opacity:1;stroke-width:0.5" />
    <path
       inkscape:connector-curvature="0"
       id="path4662"
       d="m 47.143105,2.9013361 c -0.144963,-0.2345545 -0.01331,-1.8658045 0.292553,-3.62500001 0.305867,-1.75919549 0.579945,-6.29216099 0.60906,-10.07325709 0.05229,-6.790959 0.06672,-6.874724 1.183847,-6.875 1.056922,-2.62e-4 1.105989,0.138743 0.75,2.12472 -0.711963,3.971877 -0.40567,12.4253911 0.552141,15.23876559 0.489419,1.43757101 0.747672,2.84382101 0.573894,3.12500001 -0.381462,0.6172175 -3.589992,0.6858765 -3.961495,0.084771 z"
       style="fill:#95e6cb;fill-opacity:1;stroke-width:0.5" />
  </g>
</svg>
